<svg width="762" height="269" viewBox="0 0 762 269" fill="none" xmlns="http://www.w3.org/2000/svg">
<path d="M760.59 134.5C760.59 152.864 750.074 170.429 730.901 186.47C711.73 202.509 683.96 216.976 649.601 229.135C580.886 253.451 485.925 268.5 381.01 268.5C276.095 268.5 181.134 253.451 112.419 229.135C78.0597 216.976 50.2896 202.509 31.1189 186.47C11.9456 170.429 1.4295 152.864 1.4295 134.5C1.4295 116.136 11.9456 98.5714 31.1189 82.53C50.2896 66.4909 78.0597 52.0244 112.419 39.8655C181.134 15.5493 276.095 0.5 381.01 0.5C485.925 0.5 580.886 15.5493 649.601 39.8655C683.96 52.0244 711.73 66.4909 730.901 82.53C750.074 98.5714 760.59 116.136 760.59 134.5Z" stroke="url(#paint0_linear_1_2168)"/>
<defs>
<linearGradient id="paint0_linear_1_2168" x1="381.01" y1="0" x2="381.01" y2="269" gradientUnits="userSpaceOnUse">
<stop stop-opacity="0"/>
<stop offset="0.479167" stop-color="#763CAC"/>
</linearGradient>
</defs>
</svg>
