<svg width="693" height="269" viewBox="0 0 693 269" fill="none" xmlns="http://www.w3.org/2000/svg">
<path d="M691.711 134.5C691.711 152.883 682.135 170.451 664.701 186.485C647.267 202.52 622.011 216.983 590.761 229.14C528.263 253.452 441.888 268.5 346.457 268.5C251.026 268.5 164.652 253.452 102.154 229.14C70.903 216.983 45.6473 202.52 28.2129 186.485C10.7789 170.451 1.20337 152.883 1.20337 134.5C1.20337 116.117 10.7789 98.5488 28.2129 82.5145C45.6473 66.4799 70.903 52.0168 102.154 39.8601C164.652 15.5481 251.026 0.5 346.457 0.5C441.888 0.5 528.263 15.5481 590.761 39.8601C622.011 52.0168 647.267 66.4799 664.701 82.5145C682.135 98.5488 691.711 116.117 691.711 134.5Z" stroke="url(#paint0_linear_1_2169)"/>
<defs>
<linearGradient id="paint0_linear_1_2169" x1="346.457" y1="0" x2="346.457" y2="269" gradientUnits="userSpaceOnUse">
<stop stop-opacity="0"/>
<stop offset="0.479167" stop-color="#763CAC"/>
</linearGradient>
</defs>
</svg>
