<svg width="877" height="269" viewBox="0 0 877 269" fill="none" xmlns="http://www.w3.org/2000/svg">
<path d="M876.319 134.5C876.319 152.833 864.21 170.395 842.083 186.449C819.967 202.495 787.932 216.966 748.301 229.128C669.046 253.449 559.527 268.5 438.533 268.5C317.539 268.5 208.019 253.449 128.764 229.128C89.1336 216.966 57.0988 202.495 34.9826 186.449C12.8552 170.395 0.746216 152.833 0.746216 134.5C0.746216 116.167 12.8552 98.6055 34.9826 82.5512C57.0988 66.5051 89.1336 52.0338 128.764 39.8721C208.019 15.5507 317.539 0.5 438.533 0.5C559.527 0.5 669.046 15.5507 748.301 39.8721C787.932 52.0338 819.967 66.5051 842.083 82.5512C864.21 98.6055 876.319 116.167 876.319 134.5Z" stroke="url(#paint0_linear_1_2167)"/>
<defs>
<linearGradient id="paint0_linear_1_2167" x1="438.533" y1="0" x2="438.533" y2="269" gradientUnits="userSpaceOnUse">
<stop stop-opacity="0"/>
<stop offset="0.479167" stop-color="#763CAC"/>
</linearGradient>
</defs>
</svg>
