<svg width="105" height="119" viewBox="0 0 105 119" fill="none" xmlns="http://www.w3.org/2000/svg">
<g filter="url(#filter0_d_1_2163)">
<path fill-rule="evenodd" clip-rule="evenodd" d="M90.3495 17.8906C90.3495 20.1397 88.5262 21.9631 86.277 21.9631H18.6604C16.4112 21.9631 14.5879 20.1397 14.5879 17.8906C14.5879 15.6414 16.4112 13.8181 18.6604 13.8181H86.277C88.5262 13.8181 90.3495 15.6414 90.3495 17.8906Z" fill="white"/>
<path fill-rule="evenodd" clip-rule="evenodd" d="M90.3495 99.7456C90.3495 101.995 88.5262 103.818 86.277 103.818H18.6604C16.4112 103.818 14.5879 101.995 14.5879 99.7456C14.5879 97.4964 16.4112 95.6731 18.6604 95.6731H86.277C88.5262 95.6731 90.3495 97.4964 90.3495 99.7456Z" fill="white"/>
<path d="M60.9918 17.8906L29.7401 57.8664L60.9918 100.697" stroke="white" stroke-width="8"/>
</g>
<defs>
<filter id="filter0_d_1_2163" x="0.587891" y="0.818115" width="103.762" height="118" filterUnits="userSpaceOnUse" color-interpolation-filters="sRGB">
<feFlood flood-opacity="0" result="BackgroundImageFix"/>
<feColorMatrix in="SourceAlpha" type="matrix" values="0 0 0 0 0 0 0 0 0 0 0 0 0 0 0 0 0 0 127 0" result="hardAlpha"/>
<feOffset dy="1"/>
<feGaussianBlur stdDeviation="7"/>
<feComposite in2="hardAlpha" operator="out"/>
<feColorMatrix type="matrix" values="0 0 0 0 1 0 0 0 0 1 0 0 0 0 1 0 0 0 0.55 0"/>
<feBlend mode="normal" in2="BackgroundImageFix" result="effect1_dropShadow_1_2163"/>
<feBlend mode="normal" in="SourceGraphic" in2="effect1_dropShadow_1_2163" result="shape"/>
</filter>
</defs>
</svg>
